<svg aria-hidden="true" style="position: absolute; width: 0; height: 0; overflow: hidden;" version="1.1" xmlns="http://www.w3.org/2000/svg" xmlns:xlink="http://www.w3.org/1999/xlink">
<defs>
<symbol id="icon-Group-5041" viewBox="0 0 239 32">
<path fill="#696969" style="fill: var(--color1, #696969)" d="M5.422 26.798h-5.022v-16.274h5.022v16.274zM2.908 8.304c-1.606 0-2.908-1.338-2.908-2.954s1.303-2.927 2.908-2.927c1.606 0 2.908 1.311 2.908 2.927s-1.303 2.954-2.908 2.954zM24.219 26.798h-5.011v-7.922c0-1.888-0.038-4.309-2.611-4.309-2.611 0-3.011 2.051-3.011 4.173v8.058h-5.017v-16.274h4.817v2.22h0.070c0.67-1.279 2.308-2.628 4.752-2.628 5.082 0 6.017 3.368 6.017 7.742v8.939h-0.005z"></path>
<path fill="#696969" style="fill: var(--color1, #696969)" d="M99.84 8.46c0.019 0.265 0.019 0.53 0.019 0.795 0 8.081-6.244 17.392-17.657 17.392-3.516 0-6.782-1.003-9.53-2.744 0.5 0.057 0.98 0.076 1.499 0.076 2.901 0 5.572-0.965 7.704-2.612-2.728-0.057-5.015-1.817-5.802-4.239 0.384 0.057 0.768 0.095 1.172 0.095 0.557 0 1.114-0.076 1.633-0.208-2.843-0.568-4.976-3.028-4.976-5.999v-0.076c0.826 0.454 1.787 0.738 2.805 0.776-1.672-1.098-2.767-2.971-2.767-5.091 0-1.135 0.307-2.176 0.845-3.085 3.055 3.709 7.647 6.132 12.796 6.397-0.096-0.454-0.154-0.927-0.154-1.4 0-3.369 2.767-6.113 6.206-6.113 1.787 0 3.401 0.738 4.534 1.93 1.403-0.265 2.747-0.776 3.939-1.476-0.461 1.419-1.441 2.612-2.728 3.369 1.249-0.132 2.459-0.473 3.574-0.946-0.845 1.211-1.902 2.29-3.112 3.16z"></path>
<path fill="#696969" style="fill: var(--color1, #696969)" d="M155.975 30.28v-13.543h-4.575v-5.382h4.575v-4.24c0-4.607 2.839-7.115 6.984-7.115 1.986 0 3.692 0.148 4.187 0.213v4.814h-2.875c-2.255 0-2.69 1.065-2.69 2.62v3.708h5.087l-0.698 5.382h-4.39v13.543z"></path>
<path fill="#696969" style="fill: var(--color1, #696969)" d="M227.819 2.422c-6.148 0-12.226 3.818-12.226 9.996 0 3.929 2.374 6.162 3.812 6.162 0.593 0 0.936-1.54 0.936-1.976 0-0.519-1.421-1.624-1.421-3.784 0-4.488 3.669-7.669 8.414-7.669 4.083 0 7.102 2.16 7.102 6.128 0 2.964-1.276 8.523-5.412 8.523-1.493 0-2.769-1.005-2.769-2.445 0-2.11 1.583-4.153 1.583-6.329 0-3.695-5.628-3.025-5.628 1.44 0 0.938 0.126 1.976 0.576 2.83-0.826 3.315-2.517 8.255-2.517 11.671 0 1.055 0.162 2.093 0.269 3.148 0.203 0.212 0.102 0.19 0.414 0.084 3.019-3.851 2.912-4.605 4.279-9.645 0.736 1.306 2.643 2.009 4.152 2.009 6.364 0 9.224-5.777 9.224-10.984 0-5.542-5.143-9.159-10.788-9.159z"></path>
</symbol>
</defs>
</svg>
